<svg width="727" height="269" viewBox="0 0 727 269" fill="none" xmlns="http://www.w3.org/2000/svg">
<g clip-path="url(#clip0_7902_427)">
<g clip-path="url(#clip1_7902_427)">
<path d="M125.503 41.918C125.503 45.2136 124.737 47.5511 123.204 48.9307C121.71 50.3102 119.219 51 115.732 51H104.235V10.7632H115.042C118.452 10.7632 120.943 11.453 122.514 12.8325C124.124 14.212 124.928 16.5113 124.928 19.7302V23.0067C124.928 25.9574 123.875 28.18 121.767 29.6745C124.258 31.054 125.503 33.4108 125.503 36.7447V41.918ZM119.928 19.2129C119.928 17.7567 119.583 16.7029 118.893 16.0514C118.242 15.4 117.188 15.0743 115.732 15.0743H109.236V27.7776H115.732C116.919 27.7776 117.916 27.3944 118.721 26.628C119.525 25.8616 119.928 24.8461 119.928 23.5815V19.2129ZM120.502 36.2273C120.502 34.9628 120.119 33.9664 119.353 33.2383C118.586 32.4719 117.571 32.0887 116.306 32.0887H109.236V46.6889H116.249C117.705 46.6889 118.778 46.3632 119.468 45.7117C120.158 45.022 120.502 43.949 120.502 42.4928V36.2273ZM156.603 41.803C156.603 45.022 155.798 47.3595 154.189 48.8157C152.617 50.2719 150.165 51 146.831 51H144.934C141.6 51 139.129 50.2719 137.519 48.8157C135.948 47.3595 135.162 45.022 135.162 41.803V31.4564C135.162 28.2375 135.948 25.8999 137.519 24.4437C139.129 22.9875 141.6 22.2594 144.934 22.2594H146.831C150.165 22.2594 152.617 22.9875 154.189 24.4437C155.798 25.8999 156.603 28.2375 156.603 31.4564V41.803ZM151.717 30.3068C151.717 29.1188 151.353 28.1991 150.625 27.5477C149.897 26.8962 148.824 26.5705 147.406 26.5705H144.359C142.941 26.5705 141.869 26.8962 141.14 27.5477C140.412 28.1991 140.048 29.1188 140.048 30.3068V42.9526C140.048 44.1406 140.412 45.0603 141.14 45.7117C141.869 46.3632 142.941 46.6889 144.359 46.6889H147.406C148.824 46.6889 149.897 46.3632 150.625 45.7117C151.353 45.0603 151.717 44.1406 151.717 42.9526V30.3068ZM182.989 49.6779C181.724 50.5593 180.192 51 178.39 51H176.034C172.662 51 170.19 50.2911 168.619 48.8732C167.048 47.417 166.262 45.0603 166.262 41.803V31.4564C166.262 28.2375 167.048 25.8999 168.619 24.4437C170.228 22.9875 172.7 22.2594 176.034 22.2594H182.702V10.7632H187.587V51H182.989V49.6779ZM178.965 46.6889C180.23 46.6889 181.169 46.3632 181.782 45.7117C182.395 45.022 182.702 44.2939 182.702 43.5274V26.5705H175.459C174.041 26.5705 172.968 26.8962 172.24 27.5477C171.512 28.1991 171.148 29.1188 171.148 30.3068V42.9526C171.148 44.1406 171.512 45.0603 172.24 45.7117C172.968 46.3632 174.041 46.6889 175.459 46.6889H178.965ZM202.822 56.4607C203.742 56.4607 204.432 56.2883 204.892 55.9434C205.351 55.5985 205.696 55.0045 205.926 54.1615L206.731 51H205.581L196.097 22.2594H201.385L208.57 46.344L214.836 22.2594H219.837L210.927 54.104C210.429 56.0583 209.816 57.5145 209.088 58.4726C208.36 59.4306 207.536 60.0437 206.616 60.3119C205.735 60.6185 204.585 60.7718 203.167 60.7718H200.408V56.4607H202.822ZM271.172 51C267.838 51 265.27 50.1953 263.469 48.5858C261.707 46.938 260.825 44.4855 260.825 41.2282V20.535C260.825 17.2777 261.707 14.8443 263.469 13.2349C265.27 11.5871 267.838 10.7632 271.172 10.7632H279.334V15.1317H270.597C269.179 15.1317 268.03 15.5533 267.148 16.3963C266.267 17.2394 265.826 18.2549 265.826 19.4428V42.3203C265.826 43.5083 266.267 44.5238 267.148 45.3668C268.03 46.2099 269.179 46.6314 270.597 46.6314H279.334V51H271.172ZM311.813 41.803C311.813 45.022 311.009 47.3595 309.399 48.8157C307.828 50.2719 305.375 51 302.041 51H300.145C296.811 51 294.339 50.2719 292.73 48.8157C291.158 47.3595 290.373 45.022 290.373 41.803V31.4564C290.373 28.2375 291.158 25.8999 292.73 24.4437C294.339 22.9875 296.811 22.2594 300.145 22.2594H302.041C305.375 22.2594 307.828 22.9875 309.399 24.4437C311.009 25.8999 311.813 28.2375 311.813 31.4564V41.803ZM306.927 30.3068C306.927 29.1188 306.563 28.1991 305.835 27.5477C305.107 26.8962 304.034 26.5705 302.616 26.5705H299.57C298.152 26.5705 297.079 26.8962 296.351 27.5477C295.623 28.1991 295.259 29.1188 295.259 30.3068V42.9526C295.259 44.1406 295.623 45.0603 296.351 45.7117C297.079 46.3632 298.152 46.6889 299.57 46.6889H302.616C304.034 46.6889 305.107 46.3632 305.835 45.7117C306.563 45.0603 306.927 44.1406 306.927 42.9526V30.3068ZM326.243 22.2594V23.639C327.431 22.7193 328.964 22.2594 330.842 22.2594H333.486C336.59 22.2594 338.889 22.9875 340.384 24.4437C341.916 25.8999 342.683 28.2375 342.683 31.4564V51H337.797V30.3068C337.797 29.1572 337.452 28.2566 336.762 27.6052C336.111 26.9154 335.21 26.5705 334.061 26.5705H330.267C329.002 26.5705 328.063 26.9154 327.45 27.6052C326.837 28.2566 326.531 28.9656 326.531 29.732V51H321.645V22.2594H326.243ZM371.943 43.8149C371.943 46.2291 371.196 48.0301 369.701 49.2181C368.245 50.406 366.118 51 363.321 51H354.756V46.6889H363.896C364.93 46.6889 365.716 46.4781 366.252 46.0566C366.789 45.5968 367.057 44.9453 367.057 44.1023V41.0558C367.057 39.3313 366.233 38.4691 364.585 38.4691H362.459C359.776 38.4691 357.764 37.8943 356.423 36.7447C355.12 35.5567 354.469 33.6982 354.469 31.169V29.502C354.469 26.9345 355.197 25.0952 356.653 23.9838C358.109 22.8342 360.255 22.2594 363.091 22.2594H370.793V26.5705H362.516C361.558 26.5705 360.792 26.8004 360.217 27.2603C359.642 27.6818 359.355 28.3141 359.355 29.1572V31.2265C359.355 32.1079 359.604 32.7593 360.102 33.1808C360.638 33.6024 361.309 33.8131 362.114 33.8131H364.068C366.636 33.8131 368.59 34.4454 369.931 35.71C371.272 36.9363 371.943 38.7757 371.943 41.2282V43.8149ZM396.375 51C394.42 51 392.926 50.3677 391.891 49.1031C390.857 47.8385 390.339 46.1716 390.339 44.1023V26.5705H384.879V22.2594H390.339V15.3617H395.225V22.2594H403.617V26.5705H395.225V44.3897C395.225 45.2327 395.436 45.8267 395.857 46.1716C396.279 46.5165 396.93 46.6889 397.812 46.6889H403.617V51H396.375ZM427.992 10.7632V15.9365H422.531V10.7632H427.992ZM414.369 26.5705V22.2594H427.704V46.6889H436.211V51H422.818V26.5705H414.369ZM458.459 51C456.505 51 455.01 50.3677 453.975 49.1031C452.941 47.8385 452.423 46.1716 452.423 44.1023V26.5705H446.963V22.2594H452.423V15.3617H457.309V22.2594H465.702V26.5705H457.309V44.3897C457.309 45.2327 457.52 45.8267 457.942 46.1716C458.363 46.5165 459.015 46.6889 459.896 46.6889H465.702V51H458.459ZM492.95 49.6779C491.685 50.5593 490.152 51 488.351 51H486.397C483.293 51 480.975 50.2719 479.442 48.8157C477.947 47.3595 477.2 45.022 477.2 41.803V22.2594H482.086V42.9526C482.086 44.1023 482.412 45.022 483.063 45.7117C483.753 46.3632 484.673 46.6889 485.822 46.6889H488.926C490.152 46.6889 491.053 46.3823 491.628 45.7692C492.241 45.1561 492.586 44.4663 492.662 43.6999V22.2594H497.548V51H492.95V49.6779ZM520.543 51C518.589 51 517.094 50.3677 516.06 49.1031C515.025 47.8385 514.508 46.1716 514.508 44.1023V26.5705H509.047V22.2594H514.508V15.3617H519.393V22.2594H527.786V26.5705H519.393V44.3897C519.393 45.2327 519.604 45.8267 520.026 46.1716C520.447 46.5165 521.099 46.6889 521.98 46.6889H527.786V51H520.543ZM552.16 10.7632V15.9365H546.699V10.7632H552.16ZM538.537 26.5705V22.2594H551.873V46.6889H560.38V51H546.987V26.5705H538.537ZM591.192 41.803C591.192 45.022 590.387 47.3595 588.778 48.8157C587.207 50.2719 584.754 51 581.42 51H579.523C576.189 51 573.718 50.2719 572.108 48.8157C570.537 47.3595 569.751 45.022 569.751 41.803V31.4564C569.751 28.2375 570.537 25.8999 572.108 24.4437C573.718 22.9875 576.189 22.2594 579.523 22.2594H581.42C584.754 22.2594 587.207 22.9875 588.778 24.4437C590.387 25.8999 591.192 28.2375 591.192 31.4564V41.803ZM586.306 30.3068C586.306 29.1188 585.942 28.1991 585.214 27.5477C584.486 26.8962 583.413 26.5705 581.995 26.5705H578.948C577.531 26.5705 576.458 26.8962 575.73 27.5477C575.001 28.1991 574.637 29.1188 574.637 30.3068V42.9526C574.637 44.1406 575.001 45.0603 575.73 45.7117C576.458 46.3632 577.531 46.6889 578.948 46.6889H581.995C583.413 46.6889 584.486 46.3632 585.214 45.7117C585.942 45.0603 586.306 44.1406 586.306 42.9526V30.3068ZM605.622 22.2594V23.639C606.81 22.7193 608.343 22.2594 610.22 22.2594H612.865C615.969 22.2594 618.268 22.9875 619.762 24.4437C621.295 25.8999 622.062 28.2375 622.062 31.4564V51H617.176V30.3068C617.176 29.1572 616.831 28.2566 616.141 27.6052C615.49 26.9154 614.589 26.5705 613.439 26.5705H609.646C608.381 26.5705 607.442 26.9154 606.829 27.6052C606.216 28.2566 605.909 28.9656 605.909 29.732V51H601.023V22.2594H605.622Z" fill="#29ABE2"/>
<path d="M96.5123 112.706C96.5123 113.574 96.4868 114.392 96.4357 115.158C96.4101 115.899 96.3718 116.487 96.3207 116.921H96.5123C97.0999 116.052 97.9046 115.324 98.9265 114.737C99.9484 114.149 101.264 113.855 102.874 113.855C105.428 113.855 107.472 114.75 109.005 116.538C110.563 118.301 111.342 120.945 111.342 124.47C111.342 126.821 110.985 128.788 110.269 130.372C109.58 131.956 108.596 133.144 107.319 133.935C106.041 134.727 104.56 135.123 102.874 135.123C101.264 135.123 99.9484 134.83 98.9265 134.242C97.9046 133.654 97.0999 132.952 96.5123 132.134H96.2441L95.5543 134.74H93.1401V105.616H96.5123V112.706ZM102.299 116.653C100.843 116.653 99.6929 116.934 98.8499 117.496C98.0068 118.032 97.4065 118.875 97.0488 120.025C96.6911 121.149 96.5123 122.593 96.5123 124.355V124.509C96.5123 127.038 96.9211 128.979 97.7386 130.333C98.5816 131.662 100.127 132.326 102.375 132.326C104.215 132.326 105.582 131.649 106.476 130.295C107.395 128.941 107.855 126.987 107.855 124.432C107.855 121.852 107.395 119.91 106.476 118.607C105.582 117.304 104.189 116.653 102.299 116.653ZM120.932 106.996C122.822 106.996 124.253 107.75 125.224 109.257C126.194 110.739 126.68 112.834 126.68 115.542C126.68 118.25 126.207 120.37 125.262 121.903C124.342 123.41 122.899 124.164 120.932 124.164C119.731 124.164 118.709 123.819 117.866 123.129C117.023 122.439 116.384 121.456 115.95 120.178C115.541 118.875 115.337 117.33 115.337 115.542C115.337 112.834 115.784 110.739 116.678 109.257C117.572 107.75 118.99 106.996 120.932 106.996ZM120.932 109.372C119.961 109.372 119.246 109.896 118.786 110.943C118.351 111.965 118.134 113.498 118.134 115.542C118.134 117.585 118.351 119.131 118.786 120.178C119.246 121.226 119.961 121.749 120.932 121.749C121.928 121.749 122.669 121.239 123.154 120.217C123.64 119.169 123.882 117.611 123.882 115.542C123.882 113.498 123.64 111.965 123.154 110.943C122.669 109.896 121.928 109.372 120.932 109.372ZM138.444 107.379L123.269 134.74H120.318L135.494 107.379H138.444ZM137.678 117.956C138.93 117.956 139.977 118.301 140.82 118.99C141.663 119.655 142.302 120.625 142.736 121.903C143.196 123.155 143.426 124.687 143.426 126.501C143.426 129.209 142.953 131.33 142.008 132.863C141.088 134.37 139.645 135.123 137.678 135.123C136.477 135.123 135.455 134.779 134.612 134.089C133.769 133.399 133.13 132.415 132.696 131.138C132.287 129.835 132.083 128.29 132.083 126.501C132.083 123.793 132.53 121.698 133.424 120.217C134.318 118.709 135.736 117.956 137.678 117.956ZM137.678 120.37C136.707 120.37 135.992 120.881 135.532 121.903C135.098 122.925 134.88 124.457 134.88 126.501C134.88 128.571 135.098 130.129 135.532 131.176C135.992 132.198 136.707 132.709 137.678 132.709C138.674 132.709 139.415 132.198 139.9 131.176C140.386 130.155 140.629 128.596 140.629 126.501C140.629 124.457 140.386 122.925 139.9 121.903C139.415 120.881 138.674 120.37 137.678 120.37Z" fill="#B4B4B4"/>
<rect y="155.32" width="235.765" height="14.3371" rx="7.16853" fill="#9EE2F8"/>
<path d="M81.7592 214.171C78.7962 214.171 76.3828 216.584 76.3828 219.547C76.3828 220.204 76.9205 220.742 77.5776 220.742C78.2347 220.742 78.7723 220.204 78.7723 219.547C78.7723 218.755 79.087 217.995 79.6472 217.435C80.2073 216.875 80.967 216.56 81.7592 216.56C82.5514 216.56 83.3111 216.875 83.8713 217.435C84.4314 217.995 84.7461 218.755 84.7461 219.547C84.7461 220.339 84.4314 221.099 83.8713 221.659C83.3111 222.219 82.5514 222.534 81.7592 222.534H52.4877C51.8306 222.534 51.293 223.072 51.293 223.729C51.293 224.386 51.8306 224.924 52.4877 224.924H81.7592C84.7222 224.924 87.1356 222.51 87.1356 219.547C87.1356 216.584 84.7222 214.171 81.7592 214.171Z" fill="#15BDFF"/>
<path d="M59.6657 220.145H69.8212C72.7841 220.145 75.1975 217.732 75.1975 214.769C75.1975 211.806 72.7841 209.393 69.8212 209.393C66.8582 209.393 64.4448 211.806 64.4448 214.769C64.4448 215.426 64.9824 215.964 65.6395 215.964C66.2966 215.964 66.8343 215.426 66.8343 214.769C66.8343 213.977 67.149 213.217 67.7091 212.657C68.2693 212.097 69.029 211.782 69.8212 211.782C70.6133 211.782 71.373 212.097 71.9332 212.657C72.4933 213.217 72.808 213.977 72.808 214.769C72.808 215.561 72.4933 216.321 71.9332 216.881C71.373 217.441 70.6133 217.756 69.8212 217.756H59.6657C59.0086 217.756 58.471 218.294 58.471 218.951C58.471 219.608 59.0086 220.145 59.6657 220.145ZM75.7949 227.314H56.0815C55.4244 227.314 54.8867 227.852 54.8867 228.509C54.8867 229.166 55.4244 229.703 56.0815 229.703H75.7949C76.5871 229.703 77.3468 230.018 77.907 230.578C78.4671 231.138 78.7818 231.898 78.7818 232.69C78.7818 233.482 78.4671 234.242 77.907 234.802C77.3468 235.362 76.5871 235.677 75.7949 235.677C75.0028 235.677 74.243 235.362 73.6829 234.802C73.1227 234.242 72.808 233.482 72.808 232.69C72.808 232.033 72.2704 231.496 71.6133 231.496C70.9562 231.496 70.4185 232.033 70.4185 232.69C70.4185 235.653 72.8319 238.067 75.7949 238.067C78.7579 238.067 81.1713 235.653 81.1713 232.69C81.1713 229.727 78.7579 227.314 75.7949 227.314Z" fill="#15BDFF"/>
<path d="M104.924 209.413H108.297L112.895 232.865L117.839 209.413H121.134L115.118 236.237H110.558L104.924 209.413ZM139.453 236.237C139.121 236.237 138.75 236.135 138.342 235.931C137.959 235.726 137.626 235.445 137.345 235.088C136.758 235.854 135.979 236.237 135.008 236.237H131.597C129.656 236.237 128.238 235.854 127.344 235.088C126.475 234.296 126.041 232.954 126.041 231.064V230.298C126.041 226.338 127.906 224.358 131.636 224.358H136.387V222.442C136.387 221.65 136.145 221.037 135.659 220.602C135.174 220.168 134.459 219.951 133.513 219.951H127.574V217.077H133.13C135.353 217.077 136.988 217.562 138.035 218.533C139.108 219.504 139.645 221.062 139.645 223.208V232.405C139.645 232.788 139.785 233.082 140.066 233.287C140.373 233.465 140.871 233.555 141.561 233.555V236.237H139.453ZM134.625 233.363C135.391 233.363 135.876 233.184 136.081 232.827C136.285 232.469 136.387 232.009 136.387 231.447V227.232H131.597C130.933 227.232 130.384 227.449 129.949 227.883C129.515 228.318 129.298 228.867 129.298 229.531V231.447C129.298 232.111 129.451 232.597 129.758 232.903C130.064 233.21 130.55 233.363 131.214 233.363H134.625ZM155.932 236.237C154.63 236.237 153.633 235.816 152.943 234.973C152.254 234.13 151.909 233.018 151.909 231.639V219.951H148.268V217.077H151.909V212.478H155.166V217.077H160.761V219.951H155.166V231.83C155.166 232.392 155.307 232.788 155.588 233.018C155.869 233.248 156.303 233.363 156.89 233.363H160.761V236.237H155.932ZM180.842 236.237C180.51 236.237 180.14 236.135 179.731 235.931C179.348 235.726 179.016 235.445 178.735 235.088C178.147 235.854 177.368 236.237 176.397 236.237H172.987C171.045 236.237 169.627 235.854 168.733 235.088C167.864 234.296 167.43 232.954 167.43 231.064V230.298C167.43 226.338 169.295 224.358 173.025 224.358H177.777V222.442C177.777 221.65 177.534 221.037 177.049 220.602C176.563 220.168 175.848 219.951 174.903 219.951H168.963V217.077H174.52C176.742 217.077 178.377 217.562 179.425 218.533C180.498 219.504 181.034 221.062 181.034 223.208V232.405C181.034 232.788 181.175 233.082 181.456 233.287C181.762 233.465 182.26 233.555 182.95 233.555V236.237H180.842ZM176.014 233.363C176.78 233.363 177.266 233.184 177.47 232.827C177.675 232.469 177.777 232.009 177.777 231.447V227.232H172.987C172.322 227.232 171.773 227.449 171.339 227.883C170.905 228.318 170.687 228.867 170.687 229.531V231.447C170.687 232.111 170.841 232.597 171.147 232.903C171.454 233.21 171.939 233.363 172.603 233.363H176.014Z" fill="#5D6481"/>
<path d="M354.723 134.74H339.702V132.518L350.738 116.806H340.353V114.2H354.455V116.729L343.572 132.134H354.723V134.74ZM363.68 106.996C365.57 106.996 367.001 107.75 367.972 109.257C368.943 110.739 369.428 112.834 369.428 115.542C369.428 118.25 368.955 120.37 368.01 121.903C367.09 123.41 365.647 124.164 363.68 124.164C362.479 124.164 361.457 123.819 360.614 123.129C359.771 122.439 359.132 121.456 358.698 120.178C358.289 118.875 358.085 117.33 358.085 115.542C358.085 112.834 358.532 110.739 359.426 109.257C360.32 107.75 361.738 106.996 363.68 106.996ZM363.68 109.372C362.709 109.372 361.994 109.896 361.534 110.943C361.1 111.965 360.882 113.498 360.882 115.542C360.882 117.585 361.1 119.131 361.534 120.178C361.994 121.226 362.709 121.749 363.68 121.749C364.676 121.749 365.417 121.239 365.902 120.217C366.388 119.169 366.631 117.611 366.631 115.542C366.631 113.498 366.388 111.965 365.902 110.943C365.417 109.896 364.676 109.372 363.68 109.372ZM381.192 107.379L366.017 134.74H363.067L378.242 107.379H381.192ZM380.426 117.956C381.678 117.956 382.725 118.301 383.568 118.99C384.411 119.655 385.05 120.625 385.484 121.903C385.944 123.155 386.174 124.687 386.174 126.501C386.174 129.209 385.702 131.33 384.756 132.863C383.837 134.37 382.393 135.123 380.426 135.123C379.225 135.123 378.203 134.779 377.36 134.089C376.517 133.399 375.879 132.415 375.444 131.138C375.036 129.835 374.831 128.29 374.831 126.501C374.831 123.793 375.278 121.698 376.172 120.217C377.067 118.709 378.484 117.956 380.426 117.956ZM380.426 120.37C379.455 120.37 378.74 120.881 378.28 121.903C377.846 122.925 377.629 124.457 377.629 126.501C377.629 128.571 377.846 130.129 378.28 131.176C378.74 132.198 379.455 132.709 380.426 132.709C381.422 132.709 382.163 132.198 382.649 131.176C383.134 130.155 383.377 128.596 383.377 126.501C383.377 124.457 383.134 122.925 382.649 121.903C382.163 120.881 381.422 120.37 380.426 120.37Z" fill="#B4B4B4"/>
<rect x="245.324" y="155.32" width="235.765" height="14.3371" rx="7.16853" fill="#FEE45A"/>
<g clip-path="url(#clip2_7902_427)">
<path fill-rule="evenodd" clip-rule="evenodd" d="M318.132 229.359C317.817 236.881 311.621 242.884 304.021 242.884C296.219 242.884 289.895 236.347 289.895 228.758C289.895 227.744 289.876 225.716 291.397 222.296C292.308 220.249 292.878 218.963 293.201 217.788C293.378 217.142 293.722 216.115 294.703 217.788C295.282 218.774 295.305 220.192 295.305 220.192C295.305 220.192 297.458 218.54 298.911 215.383C301.042 210.756 299.342 207.99 298.761 206.066C298.56 205.401 298.434 204.205 299.813 204.714C301.218 205.232 304.934 207.833 306.876 210.574C309.648 214.487 310.633 218.239 310.633 218.239C310.633 218.239 311.52 217.137 311.835 215.984C312.19 214.683 312.196 213.394 313.338 214.782C314.424 216.103 316.037 218.584 316.945 220.944C318.593 225.228 318.132 229.359 318.132 229.359Z" fill="url(#paint0_linear_7902_427)"/>
<path fill-rule="evenodd" clip-rule="evenodd" d="M304.002 242.884C298.608 242.884 294.234 238.511 294.234 233.116C294.234 229.861 295.546 227.884 298.276 225.204C300.024 223.488 301.66 221.381 302.356 219.946C302.493 219.663 302.804 218.191 304.005 219.915C304.635 220.819 305.623 222.426 306.257 223.799C307.348 226.164 307.609 228.457 307.609 228.457C307.609 228.457 308.679 227.827 309.412 226.203C309.649 225.68 310.127 223.699 311.463 225.68C312.443 227.133 313.79 229.746 313.77 233.116C313.77 238.511 309.397 242.884 304.002 242.884Z" fill="#FC9502"/>
<path fill-rule="evenodd" clip-rule="evenodd" d="M304.165 232.215C305.555 232.215 305.555 234.789 307.321 238.226C308.497 240.515 306.738 242.885 304.165 242.885C301.592 242.885 300.258 240.799 300.258 238.226C300.258 235.653 302.775 232.215 304.165 232.215Z" fill="#FCE202"/>
</g>
<path d="M355.081 219.759C355.081 221.829 354.532 223.362 353.433 224.358C352.335 225.329 350.712 225.814 348.566 225.814H344.581V236.237H341.247V209.413H348.49C350.661 209.413 352.296 209.898 353.395 210.869C354.519 211.814 355.081 213.321 355.081 215.391V219.759ZM351.747 215.046C351.747 214.075 351.517 213.373 351.057 212.938C350.623 212.504 349.921 212.287 348.95 212.287H344.581V222.94H348.95C349.921 222.94 350.623 222.723 351.057 222.289C351.517 221.829 351.747 221.113 351.747 220.143V215.046ZM370.641 209.413V212.862H367V209.413H370.641ZM361.559 219.951V217.077H370.449V233.363H376.121V236.237H367.192V219.951H361.559ZM390.952 236.237C389.649 236.237 388.653 235.816 387.963 234.973C387.273 234.13 386.929 233.018 386.929 231.639V219.951H383.288V217.077H386.929V212.478H390.186V217.077H395.781V219.951H390.186V231.83C390.186 232.392 390.326 232.788 390.607 233.018C390.888 233.248 391.323 233.363 391.91 233.363H395.781V236.237H390.952ZM411.647 236.237C410.344 236.237 409.348 235.816 408.658 234.973C407.968 234.13 407.623 233.018 407.623 231.639V219.951H403.983V217.077H407.623V212.478H410.881V217.077H416.475V219.951H410.881V231.83C410.881 232.392 411.021 232.788 411.302 233.018C411.583 233.248 412.017 233.363 412.605 233.363H416.475V236.237H411.647ZM436.557 236.237C436.225 236.237 435.854 236.135 435.446 235.931C435.062 235.726 434.73 235.445 434.449 235.088C433.862 235.854 433.083 236.237 432.112 236.237H428.701C426.76 236.237 425.342 235.854 424.448 235.088C423.579 234.296 423.145 232.954 423.145 231.064V230.298C423.145 226.338 425.01 224.358 428.74 224.358H433.491V222.442C433.491 221.65 433.249 221.037 432.763 220.602C432.278 220.168 431.563 219.951 430.617 219.951H424.678V217.077H430.234C432.457 217.077 434.092 217.562 435.139 218.533C436.212 219.504 436.749 221.062 436.749 223.208V232.405C436.749 232.788 436.889 233.082 437.17 233.287C437.477 233.465 437.975 233.555 438.665 233.555V236.237H436.557ZM431.729 233.363C432.495 233.363 432.98 233.184 433.185 232.827C433.389 232.469 433.491 232.009 433.491 231.447V227.232H428.701C428.037 227.232 427.488 227.449 427.053 227.883C426.619 228.318 426.402 228.867 426.402 229.531V231.447C426.402 232.111 426.555 232.597 426.862 232.903C427.168 233.21 427.654 233.363 428.318 233.363H431.729Z" fill="#5D6481"/>
<path d="M582.566 114.2H586.168L590.613 125.888C590.869 126.578 591.098 127.242 591.303 127.881C591.533 128.519 591.737 129.145 591.916 129.759C592.095 130.346 592.235 130.921 592.337 131.483H592.491C592.644 130.844 592.887 130.014 593.219 128.992C593.551 127.945 593.896 126.897 594.254 125.85L598.43 114.2H602.071L593.219 137.576C592.733 138.853 592.159 139.965 591.494 140.91C590.856 141.881 590.064 142.622 589.119 143.132C588.199 143.669 587.075 143.937 585.746 143.937C585.133 143.937 584.597 143.899 584.137 143.822C583.677 143.771 583.281 143.707 582.949 143.631V140.948C583.23 140.999 583.562 141.05 583.945 141.101C584.354 141.153 584.775 141.178 585.21 141.178C586.002 141.178 586.679 141.025 587.241 140.718C587.828 140.437 588.327 140.016 588.735 139.454C589.144 138.917 589.489 138.279 589.77 137.538L590.843 134.817L582.566 114.2ZM609.535 106.996C611.425 106.996 612.856 107.75 613.826 109.257C614.797 110.739 615.283 112.834 615.283 115.542C615.283 118.25 614.81 120.37 613.865 121.903C612.945 123.41 611.502 124.164 609.535 124.164C608.334 124.164 607.312 123.819 606.469 123.129C605.626 122.439 604.987 121.456 604.553 120.178C604.144 118.875 603.94 117.33 603.94 115.542C603.94 112.834 604.387 110.739 605.281 109.257C606.175 107.75 607.593 106.996 609.535 106.996ZM609.535 109.372C608.564 109.372 607.848 109.896 607.389 110.943C606.954 111.965 606.737 113.498 606.737 115.542C606.737 117.585 606.954 119.131 607.389 120.178C607.848 121.226 608.564 121.749 609.535 121.749C610.531 121.749 611.272 121.239 611.757 120.217C612.243 119.169 612.485 117.611 612.485 115.542C612.485 113.498 612.243 111.965 611.757 110.943C611.272 109.896 610.531 109.372 609.535 109.372ZM627.047 107.379L611.872 134.74H608.921L624.096 107.379H627.047ZM626.281 117.956C627.533 117.956 628.58 118.301 629.423 118.99C630.266 119.655 630.905 120.625 631.339 121.903C631.799 123.155 632.029 124.687 632.029 126.501C632.029 129.209 631.556 131.33 630.611 132.863C629.691 134.37 628.248 135.123 626.281 135.123C625.08 135.123 624.058 134.779 623.215 134.089C622.372 133.399 621.733 132.415 621.299 131.138C620.89 129.835 620.686 128.29 620.686 126.501C620.686 123.793 621.133 121.698 622.027 120.217C622.921 118.709 624.339 117.956 626.281 117.956ZM626.281 120.37C625.31 120.37 624.595 120.881 624.135 121.903C623.7 122.925 623.483 124.457 623.483 126.501C623.483 128.571 623.7 130.129 624.135 131.176C624.595 132.198 625.31 132.709 626.281 132.709C627.277 132.709 628.018 132.198 628.503 131.176C628.989 130.155 629.231 128.596 629.231 126.501C629.231 124.457 628.989 122.925 628.503 121.903C628.018 120.881 627.277 120.37 626.281 120.37Z" fill="#B4B4B4"/>
<rect x="490.645" y="155.32" width="235.765" height="14.3371" rx="7.16853" fill="#74CD65"/>
<g clip-path="url(#clip3_7902_427)">
<path d="M549.367 204.577C548.957 204.577 548.55 204.59 548.147 204.615L532.194 215.23C530.922 217.794 530.207 220.682 530.207 223.738C530.207 229.342 532.613 234.384 536.448 237.887C536.448 237.887 542.693 242.183 549.367 242.183C558.298 242.183 567.589 234.32 567.589 223.738C567.589 211.191 555.651 205.631 555.651 205.631C553.682 204.948 551.568 204.577 549.367 204.577Z" fill="#008CDF"/>
<path d="M568.349 221.046L563.704 220.516C563.704 231.098 555.125 239.676 544.543 239.676C541.653 239.676 538.914 239.033 536.457 237.887C537.945 239.246 539.647 240.374 541.508 241.213L542.636 241.15L544.067 242.152C545.753 242.638 547.534 242.898 549.376 242.898C559.958 242.898 568.537 234.319 568.537 223.737C568.537 222.824 568.473 221.925 568.349 221.046Z" fill="#0069D0"/>
<path d="M557.477 206.371C556.885 206.094 556.277 205.847 555.654 205.631L553.959 207.121C553.731 207.316 553.582 207.587 553.539 207.883C553.496 208.179 553.562 208.481 553.725 208.733C554.054 209.242 554.717 209.42 555.276 209.184L555.618 209.04C556.04 208.862 556.533 208.926 556.874 209.23C557.478 209.768 557.373 210.718 556.696 211.118L552.716 213.473C551.939 213.933 551.445 214.769 551.461 215.672C551.478 216.61 552.004 217.374 553.06 217.471C555.246 217.673 554.931 215.357 556.215 215.357H560.618C561.288 215.357 561.869 215.858 561.927 216.526C561.993 217.286 561.395 217.924 560.648 217.924H555.369C553.315 217.924 551.524 219.507 551.463 221.559C551.399 223.683 553.102 225.425 555.211 225.425H555.748C556.772 225.425 557.603 226.255 557.603 227.279V233.869C557.603 234.064 557.637 234.257 557.701 234.437L559.252 234.404L564.08 226.552L564.701 222.052L566.275 219.773C566.275 219.773 563.232 209.061 557.477 206.371Z" fill="#98DB7C"/>
<path d="M568.354 221.046C567.439 214.532 563.235 209.064 557.488 206.371C561.307 209.874 563.709 214.925 563.709 220.516C563.709 226.002 561.409 230.944 557.713 234.437C557.939 235.085 558.582 235.534 559.329 235.428C559.805 235.359 560.209 235.039 560.446 234.621L565.019 226.557C565.22 226.204 565.349 225.814 565.398 225.411C565.448 225.008 565.418 224.599 565.309 224.207L564.955 222.928C564.838 222.508 565.182 222.102 565.616 222.148L565.868 222.175C566.204 222.211 566.543 222.177 566.865 222.075C567.187 221.973 567.484 221.806 567.739 221.584L568.354 221.046Z" fill="#77CC7D"/>
<path d="M549.186 206.271L548.144 204.615C541.135 205.055 535.154 209.258 532.191 215.23L533.399 223.571C533.466 224.033 533.636 224.474 533.898 224.861C534.16 225.248 534.506 225.57 534.91 225.804C535.138 225.936 535.312 226.144 535.402 226.392C535.491 226.64 535.49 226.912 535.398 227.159L534.986 228.271C534.805 228.759 534.783 229.291 534.922 229.793C535.061 230.294 535.355 230.738 535.762 231.063L536.863 231.941C537.24 232.242 537.541 232.626 537.742 233.063L540.603 239.271L542.275 240.451L543.456 239.646L543.028 237.857C542.786 236.847 542.916 235.785 543.392 234.863L545.249 231.272C545.76 230.283 545.291 229.069 544.247 228.682L542.722 228.116C542.485 228.028 542.281 227.87 542.137 227.663C541.993 227.455 541.916 227.209 541.916 226.957V226.838C541.916 226.155 541.362 225.602 540.679 225.602H538.028C537.378 225.602 536.739 225.431 536.176 225.106L535.529 224.734C535.287 224.594 535.079 224.401 534.922 224.169C534.765 223.938 534.663 223.673 534.623 223.396L534.581 223.111C534.53 222.758 534.582 222.399 534.73 222.075C534.877 221.751 535.115 221.477 535.415 221.285L535.795 221.041C536.019 220.897 536.284 220.829 536.55 220.848C536.815 220.867 537.068 220.971 537.27 221.145L537.609 221.437C538.021 221.793 538.664 221.582 538.786 221.051L539.147 219.476C539.242 219.064 539.441 218.682 539.725 218.369C540.01 218.055 540.37 217.82 540.771 217.685L543.438 216.791C544.2 216.535 544.519 215.633 544.088 214.955L542.875 213.05C542.542 212.527 541.873 212.331 541.31 212.593L540.309 213.06C539.791 213.302 539.146 213.198 538.796 212.746C538.345 212.163 538.527 211.325 539.163 210.976L541.679 209.595C542.514 209.136 543.56 209.385 544.099 210.169L544.333 210.509C544.504 210.757 544.732 210.96 544.998 211.1C545.264 211.24 545.56 211.313 545.861 211.313H546.993C547.36 211.313 547.719 211.204 548.024 211C548.329 210.796 548.567 210.506 548.707 210.167L549.381 208.536C549.532 208.17 549.593 207.774 549.559 207.38C549.525 206.986 549.397 206.605 549.186 206.271Z" fill="#98DB7C"/>
<path d="M541.503 241.213C542.332 241.587 543.187 241.901 544.062 242.153L543.462 239.646C542.503 239.594 541.549 239.468 540.609 239.271L541.503 241.213Z" fill="#77CC7D"/>
</g>
<path d="M589.557 226.351V236.237H586.223V209.413H589.557V220.986L596.838 209.413H600.478L593.082 221.254L600.938 236.237H597.106L591.013 224.166L589.557 226.351ZM619.793 236.237C619.461 236.237 619.091 236.135 618.682 235.931C618.299 235.726 617.967 235.445 617.686 235.088C617.098 235.854 616.319 236.237 615.348 236.237H611.937C609.996 236.237 608.578 235.854 607.684 235.088C606.815 234.296 606.381 232.954 606.381 231.064V230.298C606.381 226.338 608.246 224.358 611.976 224.358H616.727V222.442C616.727 221.65 616.485 221.037 615.999 220.602C615.514 220.168 614.799 219.951 613.853 219.951H607.914V217.077H613.47C615.693 217.077 617.328 217.562 618.375 218.533C619.448 219.504 619.985 221.062 619.985 223.208V232.405C619.985 232.788 620.125 233.082 620.406 233.287C620.713 233.465 621.211 233.555 621.901 233.555V236.237H619.793ZM614.965 233.363C615.731 233.363 616.217 233.184 616.421 232.827C616.625 232.469 616.727 232.009 616.727 231.447V227.232H611.937C611.273 227.232 610.724 227.449 610.29 227.883C609.855 228.318 609.638 228.867 609.638 229.531V231.447C609.638 232.111 609.791 232.597 610.098 232.903C610.405 233.21 610.89 233.363 611.554 233.363H614.965ZM630.908 217.077V217.997C631.7 217.383 632.722 217.077 633.973 217.077H635.353C637.601 217.077 639.249 217.562 640.296 218.533C641.344 219.478 641.867 221.037 641.867 223.208V230.106C641.867 232.252 641.331 233.81 640.258 234.781C639.211 235.752 637.575 236.237 635.353 236.237H631.099V242.752H627.842V217.077H630.908ZM633.59 219.951C632.747 219.951 632.121 220.181 631.712 220.641C631.304 221.075 631.099 221.548 631.099 222.059V233.363H635.736C636.681 233.363 637.397 233.146 637.882 232.712C638.367 232.277 638.61 231.664 638.61 230.872V222.442C638.61 221.65 638.367 221.037 637.882 220.602C637.397 220.168 636.681 219.951 635.736 219.951H633.59ZM651.794 209.413V217.843C652.56 217.332 653.518 217.077 654.668 217.077H656.431C658.5 217.077 660.033 217.562 661.029 218.533C662.051 219.504 662.562 221.062 662.562 223.208V236.237H659.305V222.442C659.305 221.675 659.075 221.075 658.615 220.641C658.181 220.181 657.58 219.951 656.814 219.951H654.285C653.467 219.951 652.854 220.168 652.445 220.602C652.037 221.011 651.82 221.458 651.794 221.944V236.237H648.537V209.413H651.794ZM681.877 236.237C681.545 236.237 681.175 236.135 680.766 235.931C680.383 235.726 680.051 235.445 679.77 235.088C679.182 235.854 678.403 236.237 677.432 236.237H674.022C672.08 236.237 670.662 235.854 669.768 235.088C668.899 234.296 668.465 232.954 668.465 231.064V230.298C668.465 226.338 670.33 224.358 674.06 224.358H678.812V222.442C678.812 221.65 678.569 221.037 678.084 220.602C677.598 220.168 676.883 219.951 675.938 219.951H669.998V217.077H675.554C677.777 217.077 679.412 217.562 680.459 218.533C681.532 219.504 682.069 221.062 682.069 223.208V232.405C682.069 232.788 682.209 233.082 682.49 233.287C682.797 233.465 683.295 233.555 683.985 233.555V236.237H681.877ZM677.049 233.363C677.815 233.363 678.301 233.184 678.505 232.827C678.709 232.469 678.812 232.009 678.812 231.447V227.232H674.022C673.357 227.232 672.808 227.449 672.374 227.883C671.939 228.318 671.722 228.867 671.722 229.531V231.447C671.722 232.111 671.876 232.597 672.182 232.903C672.489 233.21 672.974 233.363 673.638 233.363H677.049Z" fill="#5D6481"/>
</g>
</g>
<defs>
<linearGradient id="paint0_linear_7902_427" x1="304.042" y1="242.912" x2="304.042" y2="204.62" gradientUnits="userSpaceOnUse">
<stop stop-color="#FF4C0D"/>
<stop offset="1" stop-color="#FC9502"/>
</linearGradient>
<clipPath id="clip0_7902_427">
<rect width="726.411" height="268.238" fill="white"/>
</clipPath>
<clipPath id="clip1_7902_427">
<rect width="726.411" height="268.238" fill="white"/>
</clipPath>
<clipPath id="clip2_7902_427">
<rect width="38.3208" height="38.3208" fill="white" transform="translate(284.879 204.577)"/>
</clipPath>
<clipPath id="clip3_7902_427">
<rect width="38.3208" height="38.3208" fill="white" transform="translate(530.199 204.577)"/>
</clipPath>
</defs>
</svg>
