<svg width="1345" height="2204" viewBox="0 0 1345 2204" fill="none" xmlns="http://www.w3.org/2000/svg">
<g filter="url(#filter0_d_7845_83255)">
<path d="M127 344.432C127 210.162 235.847 101.314 370.118 101.314H1218V1808.2C1218 1942.47 1109.15 2051.31 974.882 2051.31H127V344.432Z" fill="black" fill-opacity="0.8" shape-rendering="crispEdges"/>
<path fill-rule="evenodd" clip-rule="evenodd" d="M1175.27 271.61V1876.21C1122.52 1928.63 1093.14 1957.81 1040.68 2010.23H305.54C252.786 1957.81 223.415 1928.63 170.661 1876.21V271.61C223.415 219.19 252.786 190.005 305.54 137.586H1040.68C1093.14 190.005 1122.52 219.19 1175.27 271.61ZM307.822 143.253L176.364 273.876V1873.94L223.7 1920.98L307.822 2004.57H1038.11L1122.23 1920.98L1169.57 1873.94V273.876L1038.11 143.253H307.822Z" fill="#9AD9FF"/>
<g opacity="0.1">
<path d="M1175.23 272.153L1042.92 140.68H726.676H620.027H303.788L171.475 272.153C171.475 272.153 176.607 804.281 174.326 811.081L218.24 767.162V320.322L306.354 233.051H620.027H726.676H1040.35L1128.46 320.322V767.162L1172.38 811.081C1170.1 804.281 1175.23 272.153 1175.23 272.153Z" fill="#9AD9FF"/>
</g>
<g opacity="0.1">
<path d="M171.475 1874.22L303.788 2005.97H620.027H726.676H1042.92L1175.23 1874.22C1175.23 1874.22 1170.1 1342.09 1172.38 1335.57L1128.46 1379.21V1826.33L1040.35 1913.6H726.676H620.027H306.354L218.24 1826.33V1379.21L174.326 1335.57C176.607 1342.09 171.475 1874.22 171.475 1874.22Z" fill="#9AD9FF"/>
</g>
<path d="M685.053 140.7L645.416 101.314H264.731L127 238.171V718.73L157.512 749.048V1200.7L171.485 1214.59V277.84L306.65 143.533C306.65 143.533 683.342 139 685.053 140.7Z" fill="#9AD9FF"/>
<path d="M659.662 2011.93L699.584 2051.32H1080.27L1218 1914.46V1433.9L1187.49 1403.58V951.927L1173.52 938.043V1874.79L1038.35 2009.1C1038.35 2009.1 661.658 2013.63 659.662 2011.93Z" fill="#9AD9FF"/>
</g>
<defs>
<filter id="filter0_d_7845_83255" x="3.8147e-05" y="-0.000120163" width="1345" height="2204" filterUnits="userSpaceOnUse" color-interpolation-filters="sRGB">
<feFlood flood-opacity="0" result="BackgroundImageFix"/>
<feColorMatrix in="SourceAlpha" type="matrix" values="0 0 0 0 0 0 0 0 0 0 0 0 0 0 0 0 0 0 127 0" result="hardAlpha"/>
<feOffset dy="25.6854"/>
<feGaussianBlur stdDeviation="63.5"/>
<feComposite in2="hardAlpha" operator="out"/>
<feColorMatrix type="matrix" values="0 0 0 0 0.603922 0 0 0 0 0.85098 0 0 0 0 1 0 0 0 1 0"/>
<feBlend mode="normal" in2="BackgroundImageFix" result="effect1_dropShadow_7845_83255"/>
<feBlend mode="normal" in="SourceGraphic" in2="effect1_dropShadow_7845_83255" result="shape"/>
</filter>
</defs>
</svg>
