<svg width="1073" height="1747" viewBox="0 0 1073 1747" fill="none" xmlns="http://www.w3.org/2000/svg">
<g filter="url(#filter0_d_8069_151)">
<path d="M109.8 257.898C109.8 262.21 106.094 265.672 101.478 265.672C96.8614 265.672 93.1553 262.21 93.1553 257.898C93.1553 253.646 96.8614 250.123 101.478 250.123C106.094 250.123 109.8 253.646 109.8 257.898Z" fill="#9AD9FF"/>
<path d="M979.698 765.361C979.698 769.613 975.926 773.136 971.375 773.136C966.759 773.136 963.053 769.613 963.053 765.361C963.053 761.049 966.759 757.587 971.375 757.587C975.926 757.587 979.698 761.049 979.698 765.361Z" fill="#9AD9FF"/>
<path d="M109.8 1546.58C109.8 1550.89 106.094 1554.35 101.478 1554.35C96.8614 1554.35 93.1553 1550.89 93.1553 1546.58C93.1553 1542.33 96.8614 1538.8 101.478 1538.8C106.094 1538.8 109.8 1542.33 109.8 1546.58Z" fill="#9AD9FF"/>
<path fill-rule="evenodd" clip-rule="evenodd" d="M972.608 1634.58H100.178V1241.61L143.351 1200.93V540.68L99.8525 499.698V499.147L100.178 74.3145H618.707L672.023 124.547H972.153V885.998L927.29 928.267V1324.18L972.608 1366.88V1634.58ZM102.778 1632.13H970.007V1367.98L924.689 1325.23V927.287L969.552 885.018V127.059H670.983L617.602 76.8261H102.778L102.453 498.718L145.951 539.7V1201.97L102.778 1242.65V1632.13Z" fill="#9AD9FF"/>
<g opacity="0.5">
<path fill-rule="evenodd" clip-rule="evenodd" d="M951.473 1610.35H122.995V1257.77L164.803 1218.71V536.258L121.5 495.746V105.99H122.15L605.244 105.261L605.44 105.443L659.796 156.22H950.367V867.828L901.473 913.564V1336.6L951.473 1383.37V1610.35ZM124.296 1609.14H950.172V1383.92L900.172 1337.15V913.078L949.067 867.342V157.435H659.211L604.724 106.476L122.8 107.204V495.26L166.103 535.773V1219.2L124.296 1258.31V1609.14Z" fill="#9AD9FF"/>
</g>
<path d="M104.979 567.356V1184.27L129.232 1161.56V587.825L104.979 567.356Z" fill="#9AD9FF"/>
<path d="M972.608 931.422L947.966 954.442V965.678L972.608 942.658V931.422Z" fill="#9AD9FF"/>
<path d="M972.608 958.694L947.966 981.775V993.011L972.608 969.931V958.694Z" fill="#9AD9FF"/>
<path d="M972.608 986.026L947.966 1009.05V1020.28L972.608 997.263V986.026Z" fill="#9AD9FF"/>
<path d="M972.608 1013.3L947.966 1036.32V1047.55L972.608 1024.53V1013.3Z" fill="#9AD9FF"/>
<path d="M972.608 1040.63L947.966 1063.65V1074.88L972.608 1051.8V1040.63Z" fill="#9AD9FF"/>
<path d="M972.608 1067.9L947.966 1090.92V1102.16L972.608 1079.14V1067.9Z" fill="#9AD9FF"/>
<path d="M972.608 1095.17L947.966 1118.25V1129.49L972.608 1106.41V1095.17Z" fill="#9AD9FF"/>
<path d="M972.608 1122.51L947.966 1145.53V1156.76L972.608 1133.74V1122.51Z" fill="#9AD9FF"/>
<path d="M972.608 1149.77L947.966 1172.79V1184.03L972.608 1161.01V1149.77Z" fill="#9AD9FF"/>
<path d="M972.608 1177.04L947.966 1200.12V1211.36L972.608 1188.28V1177.04Z" fill="#9AD9FF"/>
<path d="M972.608 1204.38L947.966 1227.39V1238.63L972.608 1215.61V1204.38Z" fill="#9AD9FF"/>
<path d="M972.608 1231.65L947.966 1254.67V1265.91L972.608 1242.89V1231.65Z" fill="#9AD9FF"/>
<path d="M651.691 82.3506L681.275 109.986H964.045V82.3506H651.691Z" fill="#9AD9FF"/>
</g>
<defs>
<filter id="filter0_d_8069_151" x="0.000343323" y="-0.000150681" width="1072.85" height="1746.58" filterUnits="userSpaceOnUse" color-interpolation-filters="sRGB">
<feFlood flood-opacity="0" result="BackgroundImageFix"/>
<feColorMatrix in="SourceAlpha" type="matrix" values="0 0 0 0 0 0 0 0 0 0 0 0 0 0 0 0 0 0 127 0" result="hardAlpha"/>
<feOffset dy="18.8403"/>
<feGaussianBlur stdDeviation="46.5775"/>
<feComposite in2="hardAlpha" operator="out"/>
<feColorMatrix type="matrix" values="0 0 0 0 0.603922 0 0 0 0 0.85098 0 0 0 0 1 0 0 0 1 0"/>
<feBlend mode="normal" in2="BackgroundImageFix" result="effect1_dropShadow_8069_151"/>
<feBlend mode="normal" in="SourceGraphic" in2="effect1_dropShadow_8069_151" result="shape"/>
</filter>
</defs>
</svg>
