<svg width="1398" height="2048" viewBox="0 0 1398 2048" fill="none" xmlns="http://www.w3.org/2000/svg">
<g filter="url(#filter0_d_7916_150)">
<path fill-rule="evenodd" clip-rule="evenodd" d="M1227.11 901.71L1227.11 1873.56L1153.86 1921.25L179.035 1921.25L104.477 1872.7L104.477 682.887L211.316 613.324L211.316 123.186L270.963 84.3506C270.963 84.3506 1169.27 86.1643 1169.27 84.7773L1293.48 165.756L1293.48 858.5L1227.11 901.71ZM1290.2 166.609L1167.96 87.0179C1163.86 87.2312 1154.19 87.2312 1130.1 87.3379C1106.67 87.4446 1072.26 87.4446 1028.02 87.4446C953.458 87.4446 849.568 87.4446 719.296 87.2312C506.6 86.9111 291.446 86.4844 272.274 86.4844L214.593 124.146L214.593 614.285L213.61 614.925L107.754 683.74L107.754 1871.85L180.346 1919.11L1152.55 1919.11L1223.83 1872.7L1223.83 900.856L1224.82 900.216L1290.2 857.647L1290.2 166.609Z" fill="#9AD9FF"/>
<path opacity="0.1" d="M1224.22 981.44L1168.39 945.045L1168.39 781.103L1257.46 723.147L1257.46 223.957L1169.21 166.428L310.614 166.428L274.921 189.696L274.921 492.924L214.833 532.095L214.833 122.347L273.284 84.3506L1169.53 84.3506L1293.48 165.147L1293.48 857.951L1227.17 901.071C1227.17 901.071 1224.22 980.053 1224.22 981.44Z" fill="#9AD9FF"/>
<path opacity="0.1" d="M1030.01 1920.92L981.693 1889.39L396.155 1889.39L197.819 1759.49L197.819 1467.31L108.038 1408.62L108.038 1873.35L181.169 1921.24C181.169 1921.24 1036.38 1920.92 1030.01 1920.92Z" fill="#9AD9FF"/>
<path d="M1190.24 84.5533L1293.48 148.428L1293.48 115.781L1242.51 84.3506C1242.51 84.3506 1190.08 84.452 1190.24 84.5533Z" fill="#9AD9FF"/>
<path d="M1269.23 899.807L1251.48 918.316L1251.48 1872.35L1271.48 1851.27L1271.48 897.346L1269.23 899.807Z" fill="#9AD9FF"/>
<path d="M182.795 605.677L111.597 650.368L111.597 620.301L182.795 575.61" fill="#9AD9FF"/>
<path d="M182.795 550.153L111.597 596.972L111.597 565.473L182.795 518.654" fill="#9AD9FF"/>
<path d="M182.795 496.752L111.597 543.571L111.597 512.073L182.795 465.254" fill="#9AD9FF"/>
<path d="M182.795 443.354L111.597 490.173L111.597 458.674L182.795 411.855" fill="#9AD9FF"/>
<path d="M182.795 386.398L111.597 433.217L111.597 401.718L182.795 354.899" fill="#9AD9FF"/>
<path d="M182.795 332.999L111.597 379.818L111.597 348.32L182.795 301.501" fill="#9AD9FF"/>
<path d="M1168.06 83.7729L1292 164.831L1292 858.261L1225.78 901.513L1225.78 1874.32L1152.85 1922.06L179.938 1922.06L105.539 1873.47L105.539 682.474L212.15 612.842L212.15 122.22L271.669 83.3457C271.669 83.3457 1170.18 85.1612 1168.06 83.7729Z" fill="black" fill-opacity="0.6"/>
<path d="M190.978 1918.94L155.978 1886.35L131.938 1863.35L131.938 1350.61L106.478 1324.35L106.478 1874.51L149.549 1918.94C149.549 1918.94 189.351 1920.62 190.978 1918.94Z" fill="#9AD9FF"/>
</g>
<defs>
<filter id="filter0_d_7916_150" x="0.000427246" y="-0.000425339" width="1397.95" height="2047.67" filterUnits="userSpaceOnUse" color-interpolation-filters="sRGB">
<feFlood flood-opacity="0" result="BackgroundImageFix"/>
<feColorMatrix in="SourceAlpha" type="matrix" values="0 0 0 0 0 0 0 0 0 0 0 0 0 0 0 0 0 0 127 0" result="hardAlpha"/>
<feOffset dy="21.13"/>
<feGaussianBlur stdDeviation="52.2381"/>
<feComposite in2="hardAlpha" operator="out"/>
<feColorMatrix type="matrix" values="0 0 0 0 0.603922 0 0 0 0 0.85098 0 0 0 0 1 0 0 0 1 0"/>
<feBlend mode="normal" in2="BackgroundImageFix" result="effect1_dropShadow_7916_150"/>
<feBlend mode="normal" in="SourceGraphic" in2="effect1_dropShadow_7916_150" result="shape"/>
</filter>
</defs>
</svg>
