<svg width="58" height="58" viewBox="0 0 58 58" fill="none" xmlns="http://www.w3.org/2000/svg">
<path d="M26.5554 43.4548H28.9696L38.6263 28.9698H31.3838V19.3131H28.9696L19.3129 33.7981H26.5554V43.4548ZM15.1799 47.4382C11.4975 43.656 9.65625 38.9483 9.65625 33.3153C9.65625 29.2917 11.256 24.9164 14.4556 20.1895C17.6552 15.4625 22.4932 10.3421 28.9696 4.82812C35.4476 10.3405 40.2864 15.4609 43.486 20.1895C46.6855 24.918 48.2845 29.2933 48.2829 33.3153C48.2829 38.9483 46.4425 43.656 42.7617 47.4382C39.0809 51.2204 34.4835 53.1115 28.9696 53.1115C23.4556 53.1115 18.8591 51.2204 15.1799 47.4382ZM39.3505 44.0294C42.0866 41.1919 43.4546 37.6206 43.4546 33.3153C43.4546 30.3781 42.237 27.0586 39.8019 23.3569C37.3669 19.6551 33.7561 15.6114 28.9696 11.2257C24.1815 15.6114 20.5707 19.6551 18.1372 23.3569C15.7037 27.0586 14.4862 30.3781 14.4846 33.3153C14.4846 37.6206 15.8526 41.1919 18.5887 44.0294C21.3247 46.8668 24.785 48.2847 28.9696 48.2831C33.1541 48.2815 36.6144 46.8628 39.3505 44.0269" fill="#9AD9FF"/>
</svg>
